<svg width="44" height="44" viewBox="0 0 44 44" fill="none" xmlns="http://www.w3.org/2000/svg">
<rect width="44" height="44" fill="#CACACA"/>
<g clip-path="url(#clip0_0_1)">
<rect width="390" height="844" transform="translate(-332 -54)" fill="#F1F1F1"/>
<path d="M-332 -54H58V591C58 618.614 35.6142 641 8 641H-282C-309.614 641 -332 618.614 -332 591V-54Z" fill="white"/>
<path d="M14.91 32.82C13.82 32.82 12.89 32.47 12.21 31.79C11.24 30.82 10.94 29.34 11.37 27.62L13.85 17.69C14.28 15.97 15.96 14.3 17.67 13.87L27.6 11.39C29.32 10.96 30.8 11.26 31.77 12.23C32.74 13.2 33.04 14.68 32.61 16.4L30.13 26.33C29.7 28.05 28.02 29.72 26.31 30.15L16.38 32.63C15.87 32.75 15.38 32.82 14.91 32.82ZM27.98 12.83L18.05 15.32C16.88 15.61 15.61 16.88 15.31 18.05L12.83 27.98C12.53 29.17 12.69 30.14 13.27 30.73C13.85 31.31 14.83 31.47 16.02 31.17L25.95 28.69C27.12 28.4 28.39 27.12 28.68 25.96L31.16 16.03C31.46 14.84 31.3 13.87 30.72 13.28C30.14 12.69 29.17 12.54 27.98 12.83Z" fill="#526CE2"/>
<path d="M22 26.25C19.66 26.25 17.75 24.34 17.75 22C17.75 19.66 19.66 17.75 22 17.75C24.34 17.75 26.25 19.66 26.25 22C26.25 24.34 24.34 26.25 22 26.25ZM22 19.25C20.48 19.25 19.25 20.48 19.25 22C19.25 23.52 20.48 24.75 22 24.75C23.52 24.75 24.75 23.52 24.75 22C24.75 20.48 23.52 19.25 22 19.25Z" fill="#526CE2"/>
<circle cx="22" cy="22" r="21.5" stroke="url(#paint0_linear_0_1)"/>
</g>
<defs>
<linearGradient id="paint0_linear_0_1" x1="-3.5" y1="-13.5" x2="39" y2="32" gradientUnits="userSpaceOnUse">
<stop stop-opacity="0.35"/>
<stop offset="1" stop-color="#959595" stop-opacity="0"/>
</linearGradient>
<clipPath id="clip0_0_1">
<rect width="390" height="844" fill="white" transform="translate(-332 -54)"/>
</clipPath>
</defs>
</svg>
