<svg width="20" height="20" viewBox="0 0 20 20" fill="none" xmlns="http://www.w3.org/2000/svg">
<path d="M14.6962 18.8804H5.13011C2.86663 18.8804 1.03271 17.0382 1.03271 14.7748V8.65345C1.03271 7.52997 1.72663 6.11736 2.6188 5.42345L7.07141 1.95388C8.40967 0.913011 10.5492 0.863446 11.9371 1.83823L17.0423 5.41519C18.0253 6.10084 18.7936 7.57127 18.7936 8.7691V14.783C18.7936 17.0382 16.9597 18.8804 14.6962 18.8804ZM7.83141 2.92866L3.3788 6.39823C2.79228 6.86084 2.27185 7.90997 2.27185 8.65345V14.7748C2.27185 16.3526 3.55228 17.6413 5.13011 17.6413H14.6962C16.274 17.6413 17.5545 16.3608 17.5545 14.783V8.7691C17.5545 7.97606 16.9845 6.87736 16.3318 6.43127L11.2266 2.85432C10.2849 2.19345 8.73185 2.22649 7.83141 2.92866Z" fill="#526CE2"/>
<path d="M9.91302 15.5761C9.57433 15.5761 9.29346 15.2952 9.29346 14.9565V12.4783C9.29346 12.1396 9.57433 11.8587 9.91302 11.8587C10.2517 11.8587 10.5326 12.1396 10.5326 12.4783V14.9565C10.5326 15.2952 10.2517 15.5761 9.91302 15.5761Z" fill="#526CE2"/>
</svg>
