<svg width="25" height="24" viewBox="0 0 25 24" fill="none" xmlns="http://www.w3.org/2000/svg">
<path d="M14.7199 21.63C13.5399 21.63 11.8699 20.8 10.5499 16.83L9.82988 14.67L7.66988 13.95C3.70988 12.63 2.87988 10.96 2.87988 9.78001C2.87988 8.61001 3.70988 6.93001 7.66988 5.60001L16.1599 2.77001C18.2799 2.06001 20.0499 2.27001 21.1399 3.35001C22.2299 4.43001 22.4399 6.21001 21.7299 8.33001L18.8999 16.82C17.5699 20.8 15.8999 21.63 14.7199 21.63ZM8.13988 7.03001C5.35988 7.96001 4.36988 9.06001 4.36988 9.78001C4.36988 10.5 5.35988 11.6 8.13988 12.52L10.6599 13.36C10.8799 13.43 11.0599 13.61 11.1299 13.83L11.9699 16.35C12.8899 19.13 13.9999 20.12 14.7199 20.12C15.4399 20.12 16.5399 19.13 17.4699 16.35L20.2999 7.86001C20.8099 6.32001 20.7199 5.06001 20.0699 4.41001C19.4199 3.76001 18.1599 3.68001 16.6299 4.19001L8.13988 7.03001Z" fill="white"/>
<path d="M10.61 14.4C10.42 14.4 10.23 14.33 10.08 14.18C9.79005 13.89 9.79005 13.41 10.08 13.12L13.66 9.53C13.95 9.24 14.43 9.24 14.72 9.53C15.01 9.82 15.01 10.3 14.72 10.59L11.14 14.18C11 14.33 10.8 14.4 10.61 14.4Z" fill="white"/>
</svg>
